Coordinates
version=1
nRows=13
nColumns=40
inDegrees=yes

Units are S.I. units (second, meters, Newtons, ...)
Angles are in degrees.

endheader
time	pelvis_tilt	pelvis_list	pelvis_rotation	pelvis_tx	pelvis_ty	pelvis_tz	hip_flexion_r	hip_adduction_r	hip_rotation_r	knee_angle_r	knee_angle_r_beta	ankle_angle_r	subtalar_angle_r	mtp_angle_r	hip_flexion_l	hip_adduction_l	hip_rotation_l	knee_angle_l	knee_angle_l_beta	ankle_angle_l	subtalar_angle_l	mtp_angle_l	lumbar_extension	lumbar_bending	lumbar_rotation	arm_flex_r	arm_add_r	arm_rot_r	elbow_flex_r	pro_sup_r	wrist_flex_r	wrist_dev_r	arm_flex_l	arm_add_l	arm_rot_l	elbow_flex_l	pro_sup_l	wrist_flex_l	wrist_dev_l
     56.16000000	     -1.48510800	     -4.97258788	     -1.07007813	      1.04295653	      0.91712642	      0.37396585	     24.65651493	     -6.37271672	      0.37520451	     62.39464070	     62.39464070	      2.79124158	    -14.78608577	     -1.80808322	     17.98828193	     -2.95275586	     -2.50426307	     33.85201568	     33.85201568	     20.21290320	    -17.32365290	      7.54475102	    -10.24304509	      6.60892135	      3.17532835	      9.59009930	    -12.63207830	      2.64652308	     26.84275667	     46.40890202	      0.00000000	      0.00000000	     15.67766790	    -13.54473267	     16.87503384	     32.69189638	     45.47979592	      0.00000000	      0.00000000
     56.18171429	     -1.30600939	     -5.05838087	     -1.66547565	      1.04155638	      0.91684131	      0.37250034	     25.78970514	     -6.16012924	      0.83696277	     63.10568694	     63.10568694	      2.79324432	    -14.70195406	     -1.71346700	     17.57990837	     -3.02220169	     -2.94202846	     34.02797840	     34.02797840	     20.56665393	    -17.47729436	      7.46580144	    -10.38459717	      6.75368744	      3.08989841	      6.58731990	    -12.96312802	      2.54320947	     25.39265284	     46.45292231	      0.00000000	      0.00000000	     17.61971445	    -14.13675332	     16.19334547	     33.88344913	     45.59787161	      0.00000000	      0.00000000
     56.20342857	     -1.15373408	     -5.15747118	     -2.26024648	      1.04019228	      0.91726106	      0.37140963	     26.67069244	     -5.94743571	      1.09698455	     62.97971398	     62.97971398	      3.11493704	    -14.46537063	     -1.60802862	     17.00843497	     -3.12088566	     -3.41354085	     33.85833598	     33.85833598	     20.84787503	    -17.52921545	      7.48422650	    -10.51138572	      6.93165474	      3.08619104	      3.64236196	    -13.21813814	      2.34440155	     24.19671451	     46.49499965	      0.00000000	      0.00000000	     19.46407255	    -14.72111662	     15.26489566	     35.42001990	     45.74387676	      0.00000000	      0.00000000
     56.22514286	     -1.07487411	     -5.29607754	     -2.87863340	      1.03877731	      0.91826134	      0.37076230	     27.35660298	     -5.68973169	      1.19936662	     62.03013660	     62.03013660	      3.71211935	    -14.04674394	     -1.66755329	     16.36040797	     -3.29107708	     -3.93399590	     33.38332651	     33.38332651	     20.93402903	    -17.51828565	      7.55106123	    -10.59439294	      7.05548794	      3.06419158	      0.74955343	    -13.45317447	      1.88643079	     23.49410209	     46.53886616	      0.00000000	      0.00000000	     21.05362818	    -15.28526145	     13.77089389	     37.47073775	     45.95111337	      0.00000000	      0.00000000
     56.24685714	     -1.13518541	     -5.43031376	     -3.48805403	      1.03730987	      0.91968109	      0.37052189	     27.88011621	     -5.45718693	      1.09890449	     60.19234235	     60.19234235	      4.09210198	    -13.64409433	     -2.54100521	     15.70614944	     -3.47969201	     -4.50109031	     32.59742605	     32.59742605	     20.75360143	    -17.50262275	      7.22162362	    -10.61334469	      7.18183975	      2.41839435	     -2.06679595	    -13.49717972	     -0.09790256	     24.46265934	     46.64050560	      0.00000000	      0.00000000	     21.52018767	    -15.81546493	      8.80952659	     41.09393162	     46.51178211	      0.00000000	      0.00000000
     56.26857143	     -1.24749050	     -5.58442266	     -4.10016507	      1.03583282	      0.92156486	      0.37061904	     28.17322612	     -5.20755102	      0.85103386	     57.61181755	     57.61181755	      4.75848555	    -12.85748533	     -2.79181538	     14.95249175	     -3.68126615	     -5.04709891	     31.53407862	     31.53407862	     20.66654165	    -17.35304706	      7.40902604	    -10.46980333	      7.31853640	      2.28938985	     -4.37714625	    -13.56982509	     -0.20217336	     23.64444456	     46.66179147	      0.00000000	      0.00000000	     23.14994765	    -16.38598318	      8.07219280	     42.30487270	     46.61395660	      0.00000000	      0.00000000
     56.29028571	     -1.41313787	     -5.67417928	     -4.77698977	      1.03423566	      0.92351560	      0.37115738	     28.24228116	     -4.99465679	      0.54791280	     54.26774015	     54.26774015	      4.71128923	    -12.14243848	     -4.85968616	     14.18889991	     -3.86651442	     -5.76883768	     30.31699603	     30.31699603	     20.12872021	    -17.27277318	      6.62682024	    -10.46077973	      7.32636619	      2.23736715	     -7.17184753	    -13.61362176	     -1.56893644	     25.07333384	     46.67290658	      0.00000000	      0.00000000	     23.90898601	    -16.66384575	      4.18873723	     45.99639379	     47.00551939	      0.00000000	      0.00000000
     56.31200000	     -1.61259753	     -5.75814905	     -5.42462000	      1.03260768	      0.92559752	      0.37199615	     28.12669272	     -4.78005030	      0.10652582	     50.47699431	     50.47699431	      5.09944789	    -10.70707518	     -5.09099630	     13.40676453	     -4.03256241	     -6.44010298	     29.00821174	     29.00821174	     19.87281466	    -17.03936030	      6.70689856	    -10.34645473	      7.31907629	      2.38072120	     -9.21441981	    -13.54387708	     -1.71985073	     24.73100430	     46.67524334	      0.00000000	      0.00000000	     25.50462853	    -17.11245930	      3.22664162	     47.65836169	     47.12040277	      0.00000000	      0.00000000
     56.33371429	     -1.88970890	     -5.81228097	     -6.05605334	      1.03102716	      0.92743344	      0.37310549	     27.83161295	     -4.58123868	     -0.48968270	     46.23158714	     46.23158714	      5.14865693	     -8.97773531	     -5.63705172	     12.67885304	     -4.18992176	     -7.17305491	     27.62123436	     27.62123436	     19.29261159	    -16.83305532	      6.05100949	    -10.17895089	      7.27936731	      2.44150234	    -11.49752626	    -13.45841101	     -2.31887611	     25.98529802	     46.63010824	      0.00000000	      0.00000000	     26.41990344	    -17.36915641	      0.99392127	     50.75503939	     47.34080526	      0.00000000	      0.00000000
     56.35542857	     -2.12425734	     -5.87548061	     -6.62926971	      1.02951024	      0.92915383	      0.37447456	     27.25467937	     -4.29866694	     -1.12179518	     41.70875896	     41.70875896	      5.01210669	     -7.02840937	     -5.53958298	     11.89787179	     -4.35662541	     -7.87327596	     26.22448701	     26.22448701	     18.64946496	    -16.57119800	      5.02609806	    -10.07430841	      7.25660656	      2.23692127	    -13.32214920	    -13.34565878	     -2.70462020	     27.43764949	     46.55122573	      0.00000000	      0.00000000	     27.22267013	    -17.73290813	     -1.38222971	     53.44733393	     47.53797137	      0.00000000	      0.00000000
     56.37714286	     -2.42360050	     -5.89194297	     -7.14004719	      1.02806751	      0.93049368	      0.37607008	     26.60314359	     -3.98561847	     -1.76467509	     37.15321217	     37.15321217	      4.68203807	     -4.94915415	     -4.78442888	     11.30296509	     -4.48484338	     -8.51252484	     25.05922670	     25.05922670	     18.47316573	    -16.16040271	      5.07678952	     -9.78898530	      7.18964046	      2.29049649	    -14.55233189	    -13.07548910	     -2.65897543	     27.28845872	     46.53830357	      0.00000000	      0.00000000	     28.62783890	    -18.14922913	     -1.87305095	     54.67775474	     47.60236710	      0.00000000	      0.00000000
     56.39885714	     -2.54578554	     -5.68284334	     -7.63561603	      1.02686808	      0.93157089	      0.37772545	     25.76373988	     -4.04445082	     -2.76284280	     32.88346986	     32.88346986	      4.44407758	     -1.79093287	     -3.76191860	     10.44857786	     -4.36623066	     -9.37335879	     23.74488298	     23.74488298	     18.08210599	    -15.55324466	      4.35458741	     -9.80897757	      6.82340061	      2.62251377	    -16.00998598	    -12.68640184	     -2.69256064	     28.08955109	     46.48012740	      0.00000000	      0.00000000	     29.80599302	    -18.16523761	     -3.12965558	     57.23436923	     47.73332924	      0.00000000	      0.00000000
     56.42057143	     -2.77618997	     -5.59306665	     -8.02341594	      1.02583401	      0.93219151	      0.37960664	     24.88487923	     -3.74976148	     -3.42593045	     28.73935886	     28.73935886	      3.79833177	      0.37932942	     -2.51907484	      9.86075977	     -4.38193077	     -9.96603423	     22.74012750	     22.74012750	     17.88997104	    -15.09059141	      3.98059228	     -9.58832954	      6.67808230	      2.61915453	    -16.91053344	    -12.36398786	     -2.65673633	     28.39349088	     46.45026092	      0.00000000	      0.00000000	     30.92297860	    -18.45117922	     -3.82176132	     58.65120380	     47.81058840	      0.00000000	      0.00000000
